<svg xmlns="http://www.w3.org/2000/svg" xmlns:xlink="http://www.w3.org/1999/xlink" viewBox="0 0 245.31 238.12"><defs><style>.cls-1{isolation:isolate;}.cls-2{fill:#a9054c;}.cls-13,.cls-15,.cls-20,.cls-21,.cls-22,.cls-23,.cls-26,.cls-28,.cls-3,.cls-30,.cls-31,.cls-33,.cls-36,.cls-5,.cls-7,.cls-8,.cls-9{opacity:0.2;mix-blend-mode:multiply;}.cls-3{fill:url(#Degradado_sin_nombre_52);}.cls-4{fill:url(#Degradado_sin_nombre_69);}.cls-5{fill:url(#Degradado_sin_nombre_52-2);}.cls-6{fill:url(#Degradado_sin_nombre_69-2);}.cls-7{fill:url(#Degradado_sin_nombre_52-3);}.cls-8{fill:url(#Degradado_sin_nombre_52-4);}.cls-9{fill:url(#Degradado_sin_nombre_52-5);}.cls-10{fill:url(#Degradado_sin_nombre_68);}.cls-11{fill:#fff;}.cls-12{fill:url(#Degradado_sin_nombre_45);}.cls-13{fill:url(#Degradado_sin_nombre_52-6);}.cls-14{fill:url(#Degradado_sin_nombre_64);}.cls-15{fill:url(#Degradado_sin_nombre_52-7);}.cls-16{fill:url(#Degradado_sin_nombre_52-8);}.cls-17{fill:url(#Degradado_sin_nombre_64-2);}.cls-18{fill:url(#Degradado_sin_nombre_58);}.cls-19{fill:none;stroke:#c73866;stroke-linecap:round;stroke-linejoin:round;stroke-width:0.56px;}.cls-20{fill:url(#Degradado_sin_nombre_52-9);}.cls-21{fill:url(#Degradado_sin_nombre_52-10);}.cls-22{fill:url(#Degradado_sin_nombre_52-11);}.cls-23{fill:url(#Degradado_sin_nombre_52-12);}.cls-24{fill:url(#Degradado_sin_nombre_64-3);}.cls-25{fill:url(#Degradado_sin_nombre_58-2);}.cls-26{fill:url(#Degradado_sin_nombre_52-13);}.cls-27{fill:url(#Degradado_sin_nombre_45-2);}.cls-28{fill:#c73866;}.cls-29{fill:url(#Degradado_sin_nombre_64-4);}.cls-30{fill:url(#Degradado_sin_nombre_52-14);}.cls-31{fill:url(#Degradado_sin_nombre_52-15);}.cls-32{fill:url(#Degradado_sin_nombre_69-3);}.cls-33{fill:url(#Degradado_sin_nombre_52-16);}.cls-34{fill:url(#Degradado_sin_nombre_45-3);}.cls-35{fill:url(#Degradado_sin_nombre_58-3);}.cls-36{fill:url(#Degradado_sin_nombre_52-17);}.cls-37{fill:url(#Degradado_sin_nombre_52-18);}.cls-38{fill:url(#Degradado_sin_nombre_52-19);}.cls-39{fill:url(#Degradado_sin_nombre_52-20);}.cls-40{fill:url(#Degradado_sin_nombre_52-21);}.cls-41{fill:url(#Degradado_sin_nombre_64-5);}.cls-42{fill:url(#Degradado_sin_nombre_58-4);}</style><linearGradient id="Degradado_sin_nombre_52" x1="93.77" y1="255.06" x2="93.77" y2="43.95" gradientTransform="matrix(1, -0.02, 0.02, 1, -2.3, 2.17)" gradientUnits="userSpaceOnUse"><stop offset="0" stop-color="#fe676e"/><stop offset="1" stop-color="#fd8f52"/></linearGradient><linearGradient id="Degradado_sin_nombre_69" x1="63.4" y1="40.95" x2="212.56" y2="40.95" gradientTransform="translate(-2.05 2.18) rotate(-1.21)" gradientUnits="userSpaceOnUse"><stop offset="0" stop-color="#ffdca2"/><stop offset="1" stop-color="#fe676e"/></linearGradient><linearGradient id="Degradado_sin_nombre_52-2" x1="63.39" y1="66.54" x2="212.56" y2="66.54" gradientTransform="translate(-2.05 2.18) rotate(-1.21)" xlink:href="#Degradado_sin_nombre_52"/><linearGradient id="Degradado_sin_nombre_69-2" x1="52.32" y1="92.89" x2="201.49" y2="92.89" gradientTransform="translate(-66.24 -11.53) rotate(-20.13)" xlink:href="#Degradado_sin_nombre_69"/><linearGradient id="Degradado_sin_nombre_52-3" x1="27.48" y1="40.63" x2="156.56" y2="40.63" xlink:href="#Degradado_sin_nombre_52"/><linearGradient id="Degradado_sin_nombre_52-4" x1="27.48" y1="63.73" x2="156.56" y2="63.73" xlink:href="#Degradado_sin_nombre_52"/><linearGradient id="Degradado_sin_nombre_52-5" x1="81.84" y1="44.93" x2="195.75" y2="44.93" gradientTransform="translate(-2.05 2.18) rotate(-1.21)" xlink:href="#Degradado_sin_nombre_52"/><linearGradient id="Degradado_sin_nombre_68" x1="72.22" y1="43.78" x2="202.8" y2="68.77" gradientTransform="matrix(1.35, -0.27, 0.22, 1.07, -18.65, 66.71)" gradientUnits="userSpaceOnUse"><stop offset="0" stop-color="#c73866" stop-opacity="0.7"/><stop offset="0.2" stop-color="#bd6386" stop-opacity="0.49"/><stop offset="0.5" stop-color="#b09aaf" stop-opacity="0.23"/><stop offset="0.72" stop-color="#a8bdc8" stop-opacity="0.06"/><stop offset="0.84" stop-color="#a5cad2" stop-opacity="0"/></linearGradient><linearGradient id="Degradado_sin_nombre_45" x1="92.05" y1="35.15" x2="139.44" y2="35.15" gradientTransform="matrix(1, -0.02, 0.02, 1, -2.3, 2.17)" gradientUnits="userSpaceOnUse"><stop offset="0" stop-color="#c73866"/><stop offset="1" stop-color="#fe676e"/></linearGradient><linearGradient id="Degradado_sin_nombre_52-6" x1="70.83" y1="27.9" x2="120.26" y2="27.9" gradientTransform="matrix(1, 0.08, -0.08, 1, 22.76, 6.49)" xlink:href="#Degradado_sin_nombre_52"/><linearGradient id="Degradado_sin_nombre_64" x1="73.73" y1="131.7" x2="167.58" y2="131.7" gradientTransform="matrix(1, -0.02, 0.02, 1, -2.3, 2.17)" gradientUnits="userSpaceOnUse"><stop offset="0" stop-color="#ffbe72"/><stop offset="1" stop-color="#ffdca2"/></linearGradient><linearGradient id="Degradado_sin_nombre_52-7" x1="79.9" y1="132.14" x2="161.47" y2="132.14" xlink:href="#Degradado_sin_nombre_52"/><linearGradient id="Degradado_sin_nombre_52-8" x1="58.71" y1="87.09" x2="154.1" y2="87.09" gradientTransform="matrix(1, 0.08, -0.08, 1, 22.76, 6.49)" xlink:href="#Degradado_sin_nombre_52"/><linearGradient id="Degradado_sin_nombre_64-2" x1="82.25" y1="23.79" x2="106.47" y2="23.79" gradientTransform="matrix(1, 0.08, -0.08, 1, 22.76, 6.49)" xlink:href="#Degradado_sin_nombre_64"/><linearGradient id="Degradado_sin_nombre_58" x1="104.14" y1="27.89" x2="107.41" y2="27.89" gradientTransform="matrix(1, 0.08, -0.08, 1, 22.76, 6.49)" gradientUnits="userSpaceOnUse"><stop offset="0" stop-color="#fd8f52"/><stop offset="1" stop-color="#ffbe72"/></linearGradient><linearGradient id="Degradado_sin_nombre_52-9" x1="58.57" y1="84.44" x2="154.37" y2="84.44" gradientTransform="matrix(1, 0.08, -0.08, 1, 22.76, 6.49)" xlink:href="#Degradado_sin_nombre_52"/><linearGradient id="Degradado_sin_nombre_52-10" x1="62.59" y1="132.74" x2="150.73" y2="132.74" gradientTransform="matrix(1, 0.08, -0.08, 1, 22.76, 6.49)" xlink:href="#Degradado_sin_nombre_52"/><linearGradient id="Degradado_sin_nombre_52-11" x1="58.71" y1="72.87" x2="154.1" y2="72.87" gradientTransform="matrix(1, 0.08, -0.08, 1, 22.76, 6.49)" xlink:href="#Degradado_sin_nombre_52"/><linearGradient id="Degradado_sin_nombre_52-12" x1="58.71" y1="105.49" x2="154.1" y2="105.49" gradientTransform="matrix(1, 0.08, -0.08, 1, 22.76, 6.49)" xlink:href="#Degradado_sin_nombre_52"/><linearGradient id="Degradado_sin_nombre_64-3" x1="75.74" y1="44.14" x2="133.78" y2="54.01" gradientTransform="matrix(1, 0.08, -0.08, 1, 22.76, 6.49)" xlink:href="#Degradado_sin_nombre_64"/><linearGradient id="Degradado_sin_nombre_58-2" x1="71.04" y1="71.77" x2="129.09" y2="81.65" xlink:href="#Degradado_sin_nombre_58"/><linearGradient id="Degradado_sin_nombre_52-13" x1="58.71" y1="32.78" x2="154.09" y2="32.78" gradientTransform="matrix(1, 0.08, -0.08, 1, 22.76, 6.49)" xlink:href="#Degradado_sin_nombre_52"/><linearGradient id="Degradado_sin_nombre_45-2" x1="37.38" y1="26.59" x2="104.28" y2="26.59" gradientTransform="matrix(1, 0.08, -0.08, 1, 22.76, 6.49)" xlink:href="#Degradado_sin_nombre_45"/><linearGradient id="Degradado_sin_nombre_64-4" x1="28.63" y1="122.96" x2="117.35" y2="122.96" xlink:href="#Degradado_sin_nombre_64"/><linearGradient id="Degradado_sin_nombre_52-14" x1="28.63" y1="149.5" x2="117.35" y2="149.5" xlink:href="#Degradado_sin_nombre_52"/><linearGradient id="Degradado_sin_nombre_52-15" x1="15.38" y1="38.84" x2="107.4" y2="38.84" gradientTransform="matrix(1, 0.08, -0.08, 1, 22.76, 6.49)" xlink:href="#Degradado_sin_nombre_52"/><linearGradient id="Degradado_sin_nombre_69-3" x1="15.39" y1="130.95" x2="107.4" y2="130.95" gradientTransform="matrix(1, 0.08, -0.08, 1, 22.76, 6.49)" xlink:href="#Degradado_sin_nombre_69"/><linearGradient id="Degradado_sin_nombre_52-16" x1="15.39" y1="127.57" x2="107.4" y2="127.57" gradientTransform="matrix(1, 0.08, -0.08, 1, 22.76, 6.49)" xlink:href="#Degradado_sin_nombre_52"/><linearGradient id="Degradado_sin_nombre_45-3" x1="15.39" y1="89.79" x2="107.65" y2="89.79" gradientTransform="matrix(1, 0.08, -0.08, 1, 22.76, 6.49)" xlink:href="#Degradado_sin_nombre_45"/><linearGradient id="Degradado_sin_nombre_58-3" x1="-12.21" y1="-12.74" x2="-5.94" y2="-12.74" gradientTransform="translate(88.89 54.27) rotate(29.73)" xlink:href="#Degradado_sin_nombre_58"/><linearGradient id="Degradado_sin_nombre_52-17" x1="-45.02" y1="-26.16" x2="-7.5" y2="-26.16" gradientTransform="translate(88.89 54.27) rotate(29.73)" xlink:href="#Degradado_sin_nombre_52"/><linearGradient id="Degradado_sin_nombre_52-18" x1="-18.95" y1="0.15" x2="7.16" y2="0.15" gradientTransform="translate(59.87 32.3) rotate(20.7)" xlink:href="#Degradado_sin_nombre_52"/><linearGradient id="Degradado_sin_nombre_52-19" x1="-16.26" y1="-22.83" x2="36.7" y2="-22.83" gradientTransform="translate(59.87 32.3) rotate(20.7)" xlink:href="#Degradado_sin_nombre_52"/><linearGradient id="Degradado_sin_nombre_52-20" x1="64.79" y1="-56.13" x2="73.51" y2="-56.13" gradientTransform="translate(37.96 101.92) rotate(-45.94)" xlink:href="#Degradado_sin_nombre_52"/><linearGradient id="Degradado_sin_nombre_52-21" x1="42.52" y1="7.38" x2="52.53" y2="7.38" xlink:href="#Degradado_sin_nombre_52"/><linearGradient id="Degradado_sin_nombre_64-5" x1="52.55" y1="85.7" x2="145.58" y2="85.7" xlink:href="#Degradado_sin_nombre_64"/><linearGradient id="Degradado_sin_nombre_58-4" x1="63.9" y1="117.04" x2="133.83" y2="117.04" gradientTransform="translate(-22.58 -1.4) rotate(-6.59)" xlink:href="#Degradado_sin_nombre_58"/></defs><g class="cls-1"><g id="Layer_2" data-name="Layer 2"><g id="OBJECTS"><path class="cls-2" d="M12.83,57.66c23.9-11.35,116.61-21,157.48-5.42,7.57,2.88,12.8,9,11.1,19.55s-7.06,6.74.9,26.92c13.7,34.73-11.95,84.64-24.88,93.35C140.69,203.34,34.78,202.54,20.5,181.65s1-37.36-3.69-57.61S-16,74.91,12.83,57.66Z"/><path class="cls-3" d="M142.67,170c11.73-13.9,17.55-30,19.57-34.57s5.45-11.72,0-15.51-12.82-7.23-18.81-6.7-28.25,7.42-28.84,6.85-3.33-7.16-1.88-8.51,23.13-3.28,25.44-3.85,4.46-3.65,3.31-3.5c-6.23.87-24.88-2.7-27.88-2.73s-2.58-4.71-2.19-5.55,7.74.84,13.76-1.16,13.34-9.65,15.13-11.18,8.4-2.52,17.86-11.79c7.75-7.59,8.25-17.55,8.17-20.92C126.63,38.21,47.93,45.48,18.55,55.41A4,4,0,0,1,19,56.54c2.5,20.19,15,26.54,13.82,30.08-4.72,13.68-6.18,30.55-6.78,34.88-2.35,16.92,6.41,32.32,16.11,35.85,10.09,3.68,18.12,5.17,30.54,6.59s16.87,1.72,17.3,3.13-1,6.65-6.54,13.86c-4.51,5.86-9.55,14-11.69,16.84,6.32.55,8.81,1,15.23,1.38,3.52-3.53,17-24.44,19.62-29.7,2.88-5.74,5.61-8.33,8.19-11.22s16.63-11.16,19.57-11.74,1.65,3.86.13,6.94-15.25,29.55-17,32.11-5.18,4.41-5.77,6.63c-.42,1.59.92,4.63,2.07,7,1.27,0,6.67-.26,9.5-.37C123.41,189.69,132.71,181.78,142.67,170ZM74,135s-5.63-5-7.51-29.47l8.82,3.59s3.57,23.5,6.46,28.3ZM76.34,80.4C74.26,79,72.28,77.61,71.23,76c0,0-.65-1.24-.65-1.24a2.85,2.85,0,0,1,.47-3.47,5.3,5.3,0,0,1,2.63-1.42,11.14,11.14,0,0,1,6.45.61l.1,0C79,73.28,77.06,78,76.34,80.4Z"/><path class="cls-4" d="M80.8,3.78c4.41-2.31,37.17-5.54,60.12,6.1C165,22.1,166.19,27.79,166,39s-2,45.14-41.59,40.3-56.41-7.6-56.12-28C68.54,32,67.09,11.65,80.8,3.78Z"/><path class="cls-5" d="M152.73,58.1a25.39,25.39,0,0,0,1.45-6.34c-.46.79-.93,1.57-1.37,2.38-.88,1.63-1.61,3.34-2.47,5-1.69,3.19-3.08,6.55-4.93,9.65a57.91,57.91,0,0,1-8.28,10.69A37.23,37.23,0,0,0,143,78.29a68.41,68.41,0,0,0,5.92-10.52A77.85,77.85,0,0,0,152.73,58.1Z"/><path class="cls-6" d="M20.13,15.71C23.55,12.09,53.5-1.58,79,2c26.78,3.75,29.71,8.75,33.15,19.42S124.86,64.76,85.85,73,30,84.1,23.67,64.68C17.7,46.42,9.71,27.6,20.13,15.71Z"/><path class="cls-7" d="M53.53,71.24c.93-4,1.39-8,2.1-12s1.7-8.18,1.79-12.37a66,66,0,0,0-1.06-12.23,1.41,1.41,0,0,1,0-.2c-1.13-3.56-1.07-7.47-.81-11.15A37.75,37.75,0,0,1,56.73,17a12.24,12.24,0,0,0,.49-3.17,5.36,5.36,0,0,0-.92-2.58c-.91-1.63-1.93-3.51-1.18-5.4a4.72,4.72,0,0,1,1-1.53l-.14,0c-.51.58-13.43,8.19-16.33,22.59-.92,4.58.75,9,2.21,12,3.17,6.35,9,7.82,4.92,16.13-1.22,2.47-2.5,4.88-3.85,7.27-1.22,2.16-2.44,4.34-3.85,6.38A25.34,25.34,0,0,1,31.61,76c4.76,3,11.34,3.77,20.31,3C52.32,76.39,52.93,73.82,53.53,71.24Z"/><path class="cls-8" d="M79.72,60c-3.3-2.51-6.29-5.46-9.76-7.75-.61-.4-1.55-1.13-2.35-.94s-1.58,1.39-2,2a37.68,37.68,0,0,0-2.71,5c-1.84,3.83-2.65,8.06-3.59,12.17A17.9,17.9,0,0,0,59,78.15c3.74-.55,7.81-1.28,12.26-2.14a8.89,8.89,0,0,1-1.42-4.24c-.21-1.75-.34-4.09,1.4-5.13s3.69-.16,5.27.52l4.18,1.7-2.13,5.68,1.77-.37s2.44-5.69,4.35-10.82C83,62.27,81.31,61.16,79.72,60Z"/><path class="cls-9" d="M130.48,79.18c.15-1.47,1.41-1.84,2.43-2.68.11-.08.42-.44.7-.74-.13-.09-.28-.2-.4-.27-3-1.79-6.81-.33-10.09-.67a14.81,14.81,0,0,1-6.07-2.37c-1.43-.88-3.67-2.21-3.63-4.16,0-2.71,3.79-2.63,5.64-2.62a20.58,20.58,0,0,0,5.49-.32,35.08,35.08,0,0,0,4.53-1.76,12,12,0,0,1,4.33-1.26,9,9,0,0,1,4,1c.2.09,1,.64,1.2.55,0,0,.35-.49.26-.39a4.16,4.16,0,0,0,.6-1.12,14.29,14.29,0,0,0,.84-3.6,31.92,31.92,0,0,0,0-7.44c-.3-2.49-2-4.44-3-6.67-1.38-3-1-5.72-.05-8.78A16.05,16.05,0,0,0,137,25.43c-4.25-11.74-15.72-15.2-27.7-15.91-7.46-.44-14.82.91-22.26,1-3.33,0-9.58,65.28,37.34,68.77,2.18.16,4.21.39,6.16.43A1.18,1.18,0,0,1,130.48,79.18Z"/><path class="cls-10" d="M231.92,114.43c3-1.81,11-28.67,11.94-33.17a57.58,57.58,0,0,0,1.31-16.55c-6.25-4.08-14.6-6.19-25.69-5.31-24.88,2-39.4,15.7-54.5,17.57s-24.57-9.23-46.11-7.92c-25,1.51-30.58,18-30.58,18l3.8,5.79s25.09-10.75,56.3,9.18C171,116.46,189,116.56,209,108.48,215.81,105.72,230.47,110.68,231.92,114.43Z"/><path class="cls-11" d="M151.11,96.23s-2-4.61-.28-7.42,3.78-.46,3.6,1.21c0,0,3.7-1,3.56,1.91S151.11,96.23,151.11,96.23Z"/><path class="cls-11" d="M173.76,101.14s-2.74-.35-3.62-1.93.83-1.94,1.58-1.38c0,0,.54-2.06,1.9-1.18S173.76,101.14,173.76,101.14Z"/><path class="cls-11" d="M217.49,98.26s-3.2-5.31-1.63-9.05,4.55-1.22,4.62.86c0,0,4.36-1.9,4.7,1.72S217.49,98.26,217.49,98.26Z"/><path class="cls-11" d="M177.78,94.78s-9.21-5.74-6.72-10.11c2.05-3.61,6,.6,6,.6s1.72-4,4.07-2.59C186.24,85.83,177.78,94.78,177.78,94.78Z"/><path class="cls-11" d="M200.2,101.84s-4.74-2.28-4.13-4.59c.72-2.75,3.49-.62,3.49-.62s1.3-2.64,3.22-.47C204.47,98.07,200.2,101.84,200.2,101.84Z"/><path class="cls-11" d="M206,79.31s-4.16-1.13-4.36-3.32a1.85,1.85,0,0,1,3.17-1.5s1.06-1.83,2.63-.75C209.56,75.21,206,79.31,206,79.31Z"/><path class="cls-11" d="M146.36,85.53s-2.86-1.34-2.77-3.11a1.33,1.33,0,0,1,2.43-.87s1-1.35,2-.32C149.35,82.62,146.36,85.53,146.36,85.53Z"/><path class="cls-11" d="M188,88.37s-1.76-1.05-1.59-2.19a.87.87,0,0,1,1.63-.41s.71-.81,1.29-.08C190.08,86.68,188,88.37,188,88.37Z"/><path class="cls-12" d="M136,49.05c-5.1-8.15.58-9.35.26-16.83s-5.5-13.19-13.7-19.48c-10.69-8.2-21-5.06-21-5.06l-11,37.89S100.5,57.4,107,61c5.81,3.18,12.61,2.63,17.62,1.25,1.58-2.14,2.58-6.88,2.78-9.62,0,0,2.7,4.92,1.58,8.18a12.36,12.36,0,0,1,8.7-.32A14.94,14.94,0,0,0,136,49.05Z"/><path class="cls-13" d="M123.93,51.31a6.24,6.24,0,0,1,2-2.21,11.25,11.25,0,0,0,2.25-1.52c1.4-1.61-.28-4.86-.47-6.7-.28-2.68.6-5.34.58-8a26.44,26.44,0,0,0-.95-6c-.33-1.35-.78-3.18-1.87-4.19a18.32,18.32,0,0,1-5.59,7.91c-2.7,2.26-6,4.15-7.8,7.26-2.16,3.69-2.75,8.16-3.31,12.32-.26,2-.74,3.8-1.18,5.72-.36,1.61-.6,3.26-.84,4.91L107,61a14,14,0,0,0,3.09,1.21,4.54,4.54,0,0,1,.8-1.72,6.26,6.26,0,0,1,2.78-2c2-.75,4.23-.72,6.19-1.55C122.17,56,122.87,53.32,123.93,51.31Z"/><path class="cls-14" d="M129,189.14h0c24.95-28.49,49-66.42,33.91-75.08-15.44-8.87-50.43,4.63-50.43,4.63-6.67-6.63-12.77-29-.84-65.54L94.51,45.9S58.31,98,80.76,137.76s54.86-3.83,63.68-1.24c4.44,1.3-13.73,33.5-20.42,45.06,0,0-3.65,5.43-6.14,7.63s-3.79,2.49-3,5.74,2.17,6,3.08,9.62,2.56,13.7,10,13.08c4-.33.24-7.26-.4-10.2S124,194.21,129,189.14Z"/><path class="cls-15" d="M125.13,115.6a37,37,0,0,0-2.7,9,62.78,62.78,0,0,0-1.26,10,35,35,0,0,0,.68,10.22c.29,1.19.65,2.36,1,3.52,2.76-1.6,4.16-2.51,6.6-4.15C124.3,136,123.06,125.23,125.13,115.6Z"/><path class="cls-16" d="M126.7,114.25a140.64,140.64,0,0,0-14.26,4.43c-6-6-11.56-24.8-3.84-55.21a14.13,14.13,0,0,1-2.89-4,15.81,15.81,0,0,1-1.45-8.91,2.09,2.09,0,0,1,.16-.5l-9.91-4.2S58.31,98,80.76,137.76c13.54,24,30.69,17.66,44.11,9.42A69.71,69.71,0,0,1,126.7,114.25Z"/><path class="cls-17" d="M126.16,21.32a20.79,20.79,0,0,1,1.36,9.91c-.69,6.6-5,22.05-8.87,24.56s-12.74-1.86-15.47-5.35S102.16,13.24,126.16,21.32Z"/><path class="cls-18" d="M126,39.12a10,10,0,0,0,.92,4.94,1.86,1.86,0,0,1-1.66,3,3,3,0,0,1-1.34-.94"/><path class="cls-19" d="M117.06,37.5s2.06,4,5.41,2.12"/><path class="cls-20" d="M95.93,111.3c3.94-.08,7.88-.36,11.8-.76A52.51,52.51,0,0,1,105,96.7c-.47-.12-.93-.25-1.4-.4a59,59,0,0,1-10.33-4.72c-5.43-2.93-11.16-5.74-15.53-10.18-2.75,8.93-4.59,16.95-4.35,27A68.86,68.86,0,0,0,95.93,111.3Z"/><path class="cls-21" d="M116,146.35a134.27,134.27,0,0,0-15.29-7.25c-4.55-1.73-21.09-3.34-20-1.34,12.23,21.68,27.42,18.6,40.14,11.72C119.31,148.38,117.7,147.3,116,146.35Z"/><path class="cls-22" d="M90.72,77.33A17.25,17.25,0,0,0,93,87.73c2.69,4.18,7.23,6,11.92,6.73a87.67,87.67,0,0,1,.13-9.23,39.91,39.91,0,0,1-5.59-2.35C96.43,81.34,93.15,79.75,90.72,77.33Z"/><path class="cls-23" d="M105.19,122.79a40.84,40.84,0,0,1,7-4c.49-.22,1-.42,1.5-.61-.82.29-1.27.47-1.27.47a14.91,14.91,0,0,1-2-2.55,5.47,5.47,0,0,0-.66.53,31.55,31.55,0,0,0-2.44,2.86A25.54,25.54,0,0,0,105.19,122.79Z"/><path class="cls-24" d="M158.67,43.73c.14-.25.31-.88-.09-1.06s-.72.22-.82.4a37.2,37.2,0,0,1-2.08,3.49s1.22-3.44,1.72-4.91c.1-.29.46-1.1-.15-1.34s-.88.52-1,.77c-.52,1.26-2.1,5-2.1,5s.94-5.56.42-6.51c-.16-.29-1.06-.66-1.19.9s-.74,5.37-.74,5.37-.59-3.71-1-5.38c-.24-1-1.71-1.28-1.28,1.1a23,23,0,0,1,.35,7.31s-1.65-2.85-2.33-2.66-.05,1.27.67,2.71c.87,1.74.47,5-.23,6.81-1.27,2.82-10.39,21.58-27.48,21.2-18.48-.41-19.18-21.52-19.18-21.52-11.07,7.68-12.6,18.1-11.85,23.85,0,0,1.12,13.75,24.78,14.21,21.17.41,34.66-29.09,37.27-35.3h0l.05-.13.13-.31C154.32,53.52,156.78,47.32,158.67,43.73Z"/><path class="cls-25" d="M117.75,88.87a8.66,8.66,0,0,0-4.91,1.92,3.9,3.9,0,0,0-1.5,2.5c1.19.11,2.44.18,3.77.21a23.43,23.43,0,0,0,9.41-1.82A8.64,8.64,0,0,0,117.75,88.87Z"/><path class="cls-26" d="M97.24,72.85c1-.11,1.89-.41,2.83-.59.5-.1,1-.19,1.5-.31A11.77,11.77,0,0,1,102,62c2-3.63,6.38-5.16,8.41-8.73,2.52-4.45-1.81-8.81-1.14-13.42.75-5.24,5.48-6.69,9.67-8.45,2.15-.91,4.68-2.1,6.13-4a8.59,8.59,0,0,0,1.55-4.83c-.26-.8-.46-1.26-.46-1.26-22.43-7.55-25.39,21.38-23.45,28.06l-8.2-3.48A138.77,138.77,0,0,0,82.12,69.33a28.32,28.32,0,0,0,9.67,3.19A25,25,0,0,0,97.24,72.85Z"/><path class="cls-27" d="M126.16,21.32s-.61,4.62-8.41,8.57-10.69,3.52-10.85,8,6.34,13-1.1,18.22-8.61,8.73-6.33,14.78c-4.79,3.4-42.75-5.12-41.36-38.55,0,0,13.07,3.86,17.54-5.43C86.8,3.68,112.67,1,126.16,21.32Z"/><path class="cls-28" d="M77.35,59.34a7.74,7.74,0,0,0,3.16-1.25,9.77,9.77,0,0,0,4.25-5.47c.64-2.06,1-4.32,2.62-5.9,1.28-1.27,3.43-1.88,4.09-3.68.72-2-.66-4.24-1.21-6.09s-1-4-.15-5.79,2.68-2.73,4.31-3.63A32,32,0,0,0,102.21,21a19.27,19.27,0,0,1-6.79-3.25c-2.35-1.79-3.86-4.33-5.69-6.59-5.59,3.15-10.56,8.41-14.08,15.72-4.47,9.29-17.54,5.43-17.54,5.43-.55,13.27,5.1,22.6,12.41,28.83a6.84,6.84,0,0,1,3.09-1.42C74.85,59.47,76.11,59.51,77.35,59.34Z"/><path class="cls-29" d="M116.88,153.28c-9-11.84-47.06-21.77-47.06-21.77-12.57-31.85-3.18-59.92-.35-75.91,3.77,1.08,7.25,1.35,9.28,0C84,52,87.89,31.57,87.87,23a25.29,25.29,0,0,0-3.6-12.7C47.72,2.05,49.18,43.08,53.75,47.35c.42,5.41-6.75,12.53-11.86,24.1C36.37,84,28.81,98.55,28.63,125.69c-.28,41.87,48.12,31.89,66.31,37.5,3.76,1.16-15.63,29-23.63,40.22a24.44,24.44,0,0,1-7.16,5.43c-4,1.77-3.81,7.51-1.8,10s7,5.24,8.59,9.67,3.43,7.39,6.49,8.82c3.48,1.61,7.79.66,7.72-3-.07-4.34-12.33-18.6-7.18-24.76h0C90.52,197.39,124.26,163,116.88,153.28Z"/><path class="cls-30" d="M87.25,140.63a12.62,12.62,0,0,0-2.42,2.63,37.34,37.34,0,0,0-3.65,6.5,92,92,0,0,0-4.25,11.1c2.25.16,3.26.22,5.33.4.2-3.17,3.63-14,4.66-16.21,1-2.06,2.07-4.06,2.87-6.2C89,139.46,88.09,140,87.25,140.63Z"/><path class="cls-31" d="M60.59,39.88s-7.33,2.95-8.47,3.8a8,8,0,0,0,1.63,3.67c.15,1.92-.67,4.06-2,6.53.63,1,1.24,1.94,1.87,2.9a15.24,15.24,0,0,1,3.19-3.07,7.81,7.81,0,0,1,6.61-1.13,11.65,11.65,0,0,1,3,1.45,25.61,25.61,0,0,0,3.06,1.57,15.43,15.43,0,0,0,7.64.67,18.56,18.56,0,0,1-9.2-3.64A19.54,19.54,0,0,1,60.59,39.88Z"/><path class="cls-32" d="M69.82,131.51c-1.11-2.83-2-5.63-2.84-8.39-5.21,1.61-10.33,3.53-15.39,5.55A113.19,113.19,0,0,0,30.71,139.2c6.85,19,29.35,20.45,47.22,21.73a98.77,98.77,0,0,1,3.71-9.35,33.86,33.86,0,0,1,5.56-8.43c1.41-1.56,2.88-3.05,4.25-4.63C80.23,134.23,69.82,131.51,69.82,131.51Z"/><path class="cls-33" d="M43.68,143.86c6.77-7.3,15.54-12.33,24.9-15.72-.59-1.69-1.13-3.36-1.6-5-5.21,1.61-10.33,3.53-15.39,5.55A113.19,113.19,0,0,0,30.71,139.2,25.81,25.81,0,0,0,39.13,151,19.73,19.73,0,0,1,43.68,143.86Z"/><path class="cls-34" d="M56.34,134.67c4.36-1.55,13.48-3.16,13.48-3.16C60,106.38,63.69,83.38,67.11,67.07c-1.55-1.58-3.06-3.19-4.61-4.75-2.22-2.23-4.52-4.39-6.6-6.76a33.39,33.39,0,0,1-3-4.15c-2,4.88-7.11,11.14-11,20C36.37,84,28.81,98.55,28.63,125.69c-.06,8.43,1.86,14.75,5.1,19.52C41.34,141.86,48.49,137.46,56.34,134.67Z"/><path class="cls-35" d="M86.91,33.13s0,4.06,1.64,6.42c1.45,2.14-.22,4.27-1.73,4.05A4.07,4.07,0,0,1,85,42.46"/><path class="cls-19" d="M74.55,33.05s3.2,4,6.56,2.11"/><path class="cls-28" d="M57.75,87.78a27.72,27.72,0,0,1-4-5.22c-.6-1-1.15-2.06-1.7-3.1a40.21,40.21,0,0,0-.37,6.67A20.54,20.54,0,0,0,54,94.37a24.67,24.67,0,0,0,4.78,6.19,16.77,16.77,0,0,0,4.94,3.62c-.21-3.47-.33-7.67-.21-10.94A63.34,63.34,0,0,1,57.75,87.78Z"/><path class="cls-36" d="M73.35,26.48a28.23,28.23,0,0,0,14.06,3A57.22,57.22,0,0,0,87.87,23a25.29,25.29,0,0,0-3.6-12.7c-11.19-2.52-18.67-.16-23.56,4.44A33.27,33.27,0,0,0,73.35,26.48Z"/><path class="cls-37" d="M50.41,11.67s18.81,9.8,18.85,11.87c0,3.24-4.09,15-4.09,15s-.77-7-3.56-7-4.94,5.7-1,8.36l-6.84,7.47C50.06,45.06,31.67,31.65,50.41,11.67Z"/><path class="cls-38" d="M79.79,27.79a26.3,26.3,0,0,0,23.69-7.06s-8.16-1.52-12.54-7.4C82.11,1.48,72.65-2.55,60.47,1.57c-8.91,3-10.06,10.1-10.06,10.1S65.2,24.84,79.79,27.79Z"/><path class="cls-39" d="M50.41,11.68s-5.41-2.3-6.82.52-.92,4.13-.92,4.13S44.91,11.17,50.41,11.68Z"/><path class="cls-40" d="M50.41,11.68s-2.94-4.41-5.08-5.63-5,.44-5,.44S45.17,6.85,50.41,11.68Z"/><path class="cls-41" d="M143.19,99.4c-1.92.73-6.91,2.95-6.91,2.95s6.42-3.54,7.41-4.75c.63-.78,0-2.44-1.82-1a51.61,51.61,0,0,1-6.35,3.59s4.28-3.27,6.1-4.92c1.06-1,.42-3.13-2.28-1a31.86,31.86,0,0,1-9,5.35s2.45-4.1,1.73-4.88-1.65.79-3,2.7-4.29,3.27-8,3.58C80,100.43,58.51,63.46,58.51,63.46S48.12,75,53,87.36c10.72,27.06,55,22,67.14,20.59,5.55-.65,15.58-1.31,22.14-3.21.4-.11,1.36-.51,1.3-1.17s-.84-.63-1.14-.63c-1.53,0-5,1-5,.89,0,0,4.2-1.59,6.22-2.56.92-.44,1.74-.91,1.35-1.71S143.56,99.26,143.19,99.4Z"/><path class="cls-42" d="M77.76,103.18a7.64,7.64,0,0,0-8.41.55,57,57,0,0,0,12.12,3.82,6.56,6.56,0,0,0-.53-1.18A6.92,6.92,0,0,0,77.76,103.18Z"/></g></g></g></svg>